I:\LETOS\07červenec 2011\heavy-metal-tvrdsi-nez-zivot-cz.avi
   General
      Complete name : I:\LETOS\07červenec 2011\heavy-metal-tvrdsi-nez-zivot-cz.avi
      Format : AVI
      Format/Info : Audio Video Interleave
      File size : 947 MiB
      Duration : 1h 55mn
      Overall bit rate : 1 145 Kbps
   Video #0
      ID : 0
      Format : MPEG-4 Visual
      Format settings, BVOP : Yes
      Format settings, QPel : No
      Format settings, GMC : No warppoints
      Format settings, Matrix : Default (H.263)
      Muxing mode : Packed bitstream
      Codec ID : DX50
      Codec ID/Hint : DivX 5
      Duration : 1h 55mn
      Bit rate : 944 Kbps
      Width : 720 pixels
      Height : 576 pixels
      Display aspect ratio : 5:4
      Frame rate : 25.000 fps
      Standard : PAL
      Resolution : 24 bits
      Colorimetry : 4:2:0
      Scan type : Progressive
      Bits/(Pixel*Frame) : 0.091
      Stream size : 780 MiB (82%)
      Writing library : DivX 6.6.1.4
   Audio #1
      ID : 1
      Format : MPEG Audio
      Format version : Version 1
      Format profile : Layer 3
      Codec ID : 55
      Codec ID/Hint : MP3
      Duration : 1h 55mn
      Bit rate mode : Constant
      Bit rate : 192 Kbps
      Channel(s) : 2 channels
      Sampling rate : 44.1 KHz
      Resolution : 16 bits
      Video delay : 26ms
      Stream size : 159 MiB (17%)
      Alignment : Split accross interleaves
      Interleave, duration : 40 ms (1.00 video frame)
      Title : Audio Stream
      Writing library : LAME3.92